<svg xmlns="http://www.w3.org/2000/svg" width="292" height="289" fill="none" viewBox="0 0 292 289">
  <mask id="a" width="292" height="289" x="0" y="0" maskUnits="userSpaceOnUse" style="mask-type:luminance">
    <path fill="#fff" d="M291.705 0H0v288.405h291.705V0Z"/>
  </mask>
  <g mask="url(#a)">
    <path fill="#E9C9BA" fill-opacity=".15" d="M142.467 287.871c-25.734.583-49.402-2.669-71.08-14.17-34.963-18.558-56.21-48.073-65.425-86.405-3.546-14.757-5.546-29.849-4.738-45.068 1.212-22.781 5.901-44.738 16.302-65.302C29.32 53.17 48.819 34.164 72.808 23.042a259.238 259.238 0 0 1 62.848-20.508c40.366-7.727 74.616 4.514 104.187 31.838 26.4 24.393 43.445 54.166 49.652 89.911 4.758 27.392 1.192 53.959-8.548 79.681-16.864 44.543-49.527 70.4-95.525 79.903a202.326 202.326 0 0 1-42.955 4.004ZM47.635 59.786c-18.856 15.943-36.216 71.099-29.806 94.231l113.623-11.105a650.98 650.98 0 0 0-83.817-83.126Zm195.293 176.471c24.053-22.135 34.36-72.587 30.277-91.084-18.141 1.757-36.311 3.831-54.534 5.193-18.322 1.37-36.697 2.031-55.988 3.054 26.304 28.757 52.614 56.213 80.239 82.832l.006.005ZM150.856 134.37l82.371-80.297c-20.306-25.038-71.328-43.217-91.089-32.742 2.896 37.598 5.791 75.131 8.714 113.027l.004.012ZM48.468 236.967l81.181-82.326c-37.783 5.095-74.872 3.83-111.205 10.239 2.468 27.571 11.735 51.558 30.014 72.08l.01.007Zm85.686 35.529c1.059-35.915 2.104-71.466 3.192-108.43-28.879 26.398-55.01 53.442-81.369 80.248 17.535 18.92 51.181 29.277 78.174 28.175l.003.007Zm13.957.303c30.724-1.111 59.263-5.739 82.965-25.32l-80.701-82.51c-1.069 36.023-2.444 71.56-2.269 107.823l.005.007ZM56.083 49.926c14.481 12.337 28.647 23.63 41.9 35.916 13.335 12.36 25.759 25.708 38.588 38.624l1.256-.52-4.695-102.055c-4.968 0-9.39-.236-13.776.06-5.191.347-10.75.12-15.446 1.956a305.274 305.274 0 0 0-31.144 14.406c-5.923 3.117-11.103 7.653-16.688 11.606l.005.007Zm106.364 89.25c37.262-.019 73.601-3.865 109.918-9.249-3.529-25.67-14.319-47.259-30.627-67.084l-79.291 76.333Z"/>
    <path fill="#E9C9BA" fill-opacity=".15" d="M90.352 131.214a8 8 0 0 1-5.986-2.382 8.066 8.066 0 0 1-1.788-2.772 8.104 8.104 0 0 1-.533-3.261c.027-4.129 5.209-9.43 9.26-9.474 5.147-.058 8.65 3.277 8.508 8.097a9.788 9.788 0 0 1-2.745 6.832 9.696 9.696 0 0 1-6.716 2.96Zm-40.291-25.893a11.04 11.04 0 0 1-3.398-.284c-4.984-2.1-9.102-10.1-8.234-15.565.314-1.992 1.001-3.598 3.311-3.412 2.143.171 2.29 1.718 2.1 3.519-.41 3.9 1.646 6.872 3.827 9.792 1.148 1.537 2.197 3.155 3.294 4.735l-.9 1.215Zm16.146 20.212c-.118.946.056 1.956-.365 2.424-3.597 3.992-7.246 7.94-11.026 11.756a3.617 3.617 0 0 1-3.058.987 3.504 3.504 0 0 1-1-1.275 3.534 3.534 0 0 1-.324-1.591c.192-4.671 8.687-12.84 13.4-13.002.82.116 1.62.352 2.373.701Zm177.937 37.812c5.796-.064 8.595 2.429 8.55 7.613-.043 5.059-3.224 8.384-8.129 8.495a9.09 9.09 0 0 1-6.448-2.669 9.195 9.195 0 0 1-2.684-6.469c.016-4.255 3.34-6.911 8.711-6.97Zm-13.632 40.607c-7.41-.56-13.889-8.158-13.014-14.443a5.517 5.517 0 0 1 2.896-3.811c2.226-.774 3.03 1.223 3.263 3.182.504 4.229 2.957 6.856 6.732 8.452.367.153.845.272 1.043.564.84 1.249 2.525 3.002 2.172 3.745-.594 1.267-2.499 1.913-3.092 2.311Zm-28.881-41.391c3.117 1.317 5.821 2.1 8.069 3.581.526.519.91 1.164 1.114 1.876.204.71.222 1.463.056 2.183-.421.928-2.794 1.791-3.896 1.428-3.778-1.245-7.258-1.865-10.955.344-.873.522-3.475.007-3.646-.537-.403-1.317-.379-3.72.436-4.281a71.26 71.26 0 0 1 8.822-4.594Zm-24.216-72.114c.346 4.24-1.723 7.511-5.369 9.773a9.98 9.98 0 0 1-10.789.142c-4.036-2.314-6.411-10.139-4.632-14.953a10.513 10.513 0 0 1 4.853-5.515 10.423 10.423 0 0 1 7.262-.968c5.477 1.016 8.634 5.118 8.675 11.52Zm-15.164-.777c1.161 5.349 2.47 7.022 4.485 5.798a5.046 5.046 0 0 0 2-4.219c-.881-3.825-3.637-2.451-6.485-1.579Zm-6.852-33.525c.251-5.746 3.208-9.377 8.455-11.228a72.737 72.737 0 0 0 10.197-4.728c2.193-1.182 4.234-2.757 6.455-.45 1.52 1.575 1.017 5.148-1.535 6.933a27.407 27.407 0 0 1-9.075 4.242c-3.941.946-6.546 2.482-6.998 6.807-.266 2.536-1.258 5.239-4.256 4.756-3.23-.528-3.263-3.627-3.243-6.331Zm49.998 8.334c-4.136.075-7.62-2.02-8.577-5.155-1.084-3.557.267-6.625 4.018-9.101.333-.22.686-.41 1.034-.602 3.763-2.088 8.84-2.033 11.301.135 2.704 2.387 2.292 5.445 1.448 8.363-1.083 3.74-5.018 6.283-9.224 6.36ZM90.726 167.093c4.47.038 7.364 2.856 7.156 6.968-.192 3.811-4.045 6.955-8.366 6.83-4.378-.126-6.659-2.757-6.501-7.495.135-4.029 2.967-6.342 7.711-6.303Zm-24.035 18.321c-6.63 5.583-16.42 2.528-18.043-5.008a3.784 3.784 0 0 1 1.147-2.956 2.688 2.688 0 0 1 1.331-.211c.455.042.89.201 1.268.459 2.587 4.748 6.886 5.567 11.673 5.693.75.02 1.471 1.099 2.624 2.023Zm-4.367 18.31c-2.705 5.555-4.849 10.265-7.345 14.774a3.732 3.732 0 0 1-1.634.964 3.73 3.73 0 0 1-1.894.039 4.189 4.189 0 0 1-1.867-3.276c.017-4.884 6.051-11.185 12.74-12.501Zm58.475 36.381a8.599 8.599 0 0 1 6.19 2.644 8.691 8.691 0 0 1 2.423 6.305 9.714 9.714 0 0 1-3.09 6.683 9.636 9.636 0 0 1-6.874 2.572c-5.086 0-9.431-3.739-9.546-8.214-.13-4.958 5.431-10.056 10.897-9.99Zm-.452-44.22c4.953.117 7.743 3.118 7.516 8.093-.221 4.857-4.62 9.387-9.18 9.457a7.757 7.757 0 0 1-3.059-.596 7.75 7.75 0 0 1-2.582-1.751 7.845 7.845 0 0 1-2.227-5.712 9.52 9.52 0 0 1 2.796-6.744 9.446 9.446 0 0 1 3.094-2.052 9.434 9.434 0 0 1 3.642-.695Zm-36.197 52.85c-.084-5.872 5.69-14.996 10.044-16.658a4.616 4.616 0 0 1 3.857.166 3.842 3.842 0 0 1 .483 3.697c-3.03 5.118-6.314 10.087-9.646 15.012-.439.647-2.22 1.259-2.457 1.009a19.994 19.994 0 0 1-2.282-3.226Zm96.932-5.663c.125-6.476 4.389-10.755 10.433-10.472 5.524.259 9.389 4.664 9.241 10.519-.167 6.53-4.977 11.785-10.586 11.569-6.06-.229-9.232-4.286-9.088-11.616Zm-25.601-30.827c.066-5.813 2.861-8.839 8.192-8.866 5.815-.03 9.327 3.267 9.214 8.653-.105 4.983-4.729 8.899-10.264 8.686-4.63-.176-7.202-3.231-7.142-8.473Zm14.81 19.432a36.99 36.99 0 0 1 2.8-4.991c2.722-3.529 5.283-7.011 5.867-11.702.142-1.136 1.893-2.564 3.151-2.888.808-.208 2.647 1.139 3.025 2.162 1.765 4.76.355 9.133-2.532 13.021-2.73 3.679-5.91 6.724-11.099 5.437-.33-.083-.583-.487-1.212-1.039ZM114.454 80.605c1.002-1.84 2.235-5.276 4.45-7.873 2.582-3.031 8.22-1.31 10.567 2.748 3.23 5.583-.941 14.123-7.292 14.941-3.732.481-7.66-3.708-7.725-9.816ZM90.596 56.86c-5.34-.02-8.69-3.393-8.598-8.662.069-3.89 4.07-7.239 8.704-7.279 5.009-.042 9.355 3.943 9.19 8.427-.164 4.289-4.173 7.531-9.296 7.514Zm21.86-2.858 11.853-2.708c1.685 3.559 1.152 4.998-2.724 6.842-4.234 2.015-7.086.768-9.129-4.134Zm126.402 60.25c-5.081.073-8.095-2.917-8.265-8.198-.194-6.029 4.785-11.728 10.365-11.865 5.671-.139 9.244 3.185 9.337 8.685.11 6.528-4.666 11.281-11.437 11.378Zm-26.178 14.584c-7.15-.222-11.333-2.867-13.763-8.078a7.604 7.604 0 0 1-.763-4.003 3.589 3.589 0 0 1 .706-1.521c.349-.445.799-.8 1.311-1.038a3.715 3.715 0 0 1 1.612.292c.509.217.962.545 1.329.961.904.994 1.183 2.538 2.011 3.631 1.362 1.796 3.045 3.395 5.548 2.182 2.187-1.064 4.327-1.645 5.764.785.606 1.023.864 3.109.252 3.827a17.05 17.05 0 0 1-4.007 2.962Z"/>
  </g>
</svg>
