<svg xmlns="http://www.w3.org/2000/svg" width="65" height="65" fill="none" viewBox="0 0 65 65">
  <path fill="#C00418" d="M49.025 4.853a15.95 15.95 0 0 0-4.687.7A15.937 15.937 0 0 0 32.5.306c-4.53 0-8.808 1.905-11.837 5.249a15.948 15.948 0 0 0-4.688-.7C7.166 4.853 0 12.02 0 20.827c0 6.492 3.963 12.35 9.93 14.79v15.55h1.931V34.275l-.639-.23c-5.557-1.998-9.29-7.31-9.29-13.218 0-7.744 6.3-14.044 14.043-14.044 1.601 0 3.174.269 4.673.798l.633.223.43-.515a14.015 14.015 0 0 1 10.79-5.054c4.176 0 8.108 1.842 10.788 5.054l.43.515.633-.223a13.985 13.985 0 0 1 4.674-.798c7.743 0 14.043 6.3 14.043 14.044 0 5.908-3.734 11.22-9.291 13.219l-.64.23v24.625H46.43V37.53H44.5v21.372h-6.713V38.818h-1.93v20.084h-6.713V38.818h-1.93v20.084H20.5V46.404h-1.93v12.498h-6.709v-5.16h-1.93v7.091H55.07V35.618c5.967-2.44 9.93-8.299 9.93-14.79 0-8.808-7.166-15.975-15.975-15.975Z"/>
  <path fill="#C00418" d="M59.207 20.828h1.93c0-6.679-5.433-12.112-12.112-12.112v1.93c5.614 0 10.182 4.568 10.182 10.182ZM20.502 37.53H18.57v6.299h1.93V37.53ZM55.07 62.765H9.93v1.93h45.14v-1.93Z"/>
</svg>
