<svg xmlns="http://www.w3.org/2000/svg" width="31" height="33" fill="none" viewBox="0 0 31 33">
  <path fill="#C00418" d="M23.369 2.275c-.762 0-1.512.118-2.235.35C19.69.954 17.651 0 15.492 0c-2.16 0-4.199.953-5.643 2.626a7.272 7.272 0 0 0-2.234-.35C3.415 2.275 0 5.86 0 10.265c0 3.248 1.889 6.179 4.734 7.4v7.777h.92v-8.45l-.305-.114C2.7 15.879.92 13.222.92 10.266c0-3.873 3.004-7.025 6.695-7.025.763 0 1.513.135 2.228.4l.301.111.205-.258C11.626 1.888 13.501.966 15.492.966c1.991 0 3.865.922 5.143 2.528l.204.258.302-.112a6.394 6.394 0 0 1 2.228-.399c3.691 0 6.694 3.152 6.694 7.026 0 2.955-1.78 5.612-4.429 6.612l-.304.115v12.319h-3.198V18.621h-.92v10.69h-3.2V19.267h-.92v10.047h-3.2V19.265h-.92v10.047h-3.2V23.06h-.92v6.252H5.654V26.73h-.92v3.548H26.25V17.665c2.845-1.22 4.734-4.151 4.734-7.398 0-4.407-3.416-7.992-7.615-7.992Z"/>
  <path fill="#C00418" d="M28.223 10.266h.92c0-3.34-2.59-6.059-5.773-6.059v.966c2.676 0 4.853 2.285 4.853 5.093Zm-18.45 8.355h-.92v3.15h.92v-3.15ZM26.25 31.244H4.734v.966H26.25v-.966Z"/>
</svg>
