<svg xmlns="http://www.w3.org/2000/svg" width="20" height="20" fill="none" viewBox="0 0 20 20">
  <g clip-path="url(#a)">
    <path fill="#C00418" d="M19.132 9.62c-.492-.638-1.163-1.198-1.967-1.674V7.6l-.019-.067c-.62-2.22-1.661-3.555-2.567-4.319-.905-.765-1.662-.964-1.717-.978l-.178-.045L3.75 6.423A2.15 2.15 0 0 0 2.537 8.13c-.735.475-1.345 1.027-1.786 1.649-.475.67-.752 1.43-.751 2.23 0 .852.312 1.658.844 2.36.8 1.054 2.082 1.902 3.662 2.5 1.581.597 3.467.94 5.494.941 2.703-.001 5.154-.608 6.968-1.62.906-.508 1.655-1.118 2.188-1.822.532-.701.845-1.507.844-2.358 0-.865-.322-1.68-.868-2.389Zm-15.59-.247h12.602V10.6H3.54V9.373Zm0 1.908h12.602v1.163c0 .09-.074.165-.165.165H3.706a.165.165 0 0 1-.165-.165V11.28Zm14.86 2.517c-.646.857-1.78 1.636-3.242 2.187-1.46.552-3.24.88-5.16.88-2.56 0-4.871-.585-6.507-1.501-.817-.457-1.464-.995-1.895-1.566-.432-.574-.652-1.17-.653-1.79 0-.582.195-1.142.578-1.685.25-.355.59-.696.997-1.017v3.138c0 .655.53 1.186 1.186 1.187H15.98a1.187 1.187 0 0 0 1.186-1.187V9.069c.5.348.912.729 1.218 1.127.445.58.671 1.185.672 1.813 0 .62-.22 1.215-.653 1.789Z"/>
  </g>
  <defs>
    <clipPath id="a">
      <path fill="#fff" d="M0 0h20v20H0z"/>
    </clipPath>
  </defs>
</svg>
