<svg xmlns="http://www.w3.org/2000/svg" width="20" height="20" fill="none" viewBox="0 0 20 20">
  <path fill="#C00418" d="M8.401.319a.657.657 0 0 0-.657.658v3.288H6.68V.911a.91.91 0 1 0-1.822 0v3.354H3.797V.977a.658.658 0 1 0-1.316 0v4.199h.013c.1.766.872 1.496 2.01 1.811v11.496a1.266 1.266 0 0 0 2.53 0V6.957c.99-.282 1.911-.88 2.014-1.781h.01v-4.2A.657.657 0 0 0 8.402.32Zm5.789.307c-.734-.249-1.843-.398-1.843.729v17.32c0 .927.53 1.325 1.193 1.325s1.193-.398 1.193-1.194V11.57h1.99c.596 0 .795-.73.795-1.261v-3.65c0-3.601-1.775-5.504-3.328-6.033Z"/>
</svg>
