<svg xmlns="http://www.w3.org/2000/svg" width="134" height="80" fill="none" viewBox="0 0 134 80">
  <path fill="#C00418" d="M0 20C0 8.954 8.954 0 20 0h93.585c11.046 0 20 8.954 20 20v39.064c0 11.046-8.954 20-20 20H20c-11.046 0-20-8.954-20-20V20Z"/>
  <path fill="#fff" d="M20 12h93.401v52.709H20z"/>
  <path fill="#C00418" d="M20 38.354V64.71h93.401V12H20v26.355Zm55.767-24.981c.24.212.228.474-.023.676-.286.233-1.553.677-1.907.677-.411 0-.354-.202.206-.667 1.016-.858 1.37-1 1.724-.686Zm-18.75 1.05c.047.141.15.747.23 1.353.08.626.205 1.12.273 1.141.217.06.64-.636.594-.99-.046-.383.069-.424 1.313-.525.697-.06.765-.05.765.122 0 .12-.194.292-.49.444a4.622 4.622 0 0 0-.686.444c-.194.192-.171.222.388.788.32.323.72.767.88.99.17.221.456.534.627.696.252.222.297.323.206.424-.125.132-1.142.273-2.352.323-.377.02-1.13.111-1.667.202-.548.091-1.12.142-1.29.101-.274-.06-.286-.09-.172-.282.16-.263.16-.445-.011-1.848a104.74 104.74 0 0 1-.217-1.838c-.057-.586-.148-.899-.297-1.04-.194-.182-.194-.222-.046-.364.206-.171 1.177-.434 1.588-.404.194.01.308.091.365.263Zm-3.961 0c.103.141-.388 1.272-.64 1.474-.376.293-.765.212-1.37-.323-.64-.555-.742-.899-.24-.818.172.02.48.111.686.182.354.131.376.121.787-.242.434-.384.651-.455.777-.273Zm11.715.666c1.21.303 1.907 1.202 1.781 2.313-.114.949-.742 1.545-1.952 1.827-.777.182-1.233.172-1.987-.03-1.256-.353-1.941-1.414-1.633-2.514.251-.869.868-1.394 1.884-1.616.8-.171 1.142-.171 1.907.02Zm6.702-.07c.229.02.16.313-.16.616-.32.293-.353.353-.993 1.969-.285.717-.377 1.05-.297 1.181.16.273-.24.394-1.13.364l-.765-.03-.034-.405c-.035-.363-.491-1.635-.891-2.443-.091-.172-.16-.354-.16-.414 0-.05-.08-.152-.171-.222a.516.516 0 0 1-.171-.364c0-.242.011-.242 1.21-.242h1.222l-.069.373c-.091.505.286 1.606.537 1.566.183-.02.537-1.07.48-1.404-.092-.525.182-.636 1.392-.545Zm4.077.252c.696.263.765.465.72 2.12-.035 1.364-.024 1.475.193 1.606.194.131.206.172.057.323-.137.152-.285.162-.97.101-.434-.04-.88-.131-.982-.212-.194-.151-.731-.11-.857.07-.034.051-.308.092-.616.092-2.01 0-2.34-1.798-.468-2.535.274-.1.616-.192.776-.192.308 0 1.062-.252 1.062-.363 0-.212-.411-.444-.776-.444-.423 0-1.097.313-1.21.555-.07.162-.526.212-.526.07 0-.05.057-.343.126-.656.16-.666.09-.646 1.85-.666.833-.01 1.358.04 1.62.131Zm-27.895.404c.194.252.057.505-.617 1.07-.662.556-1.233.788-1.233.505 0-.202.81-1.464 1.05-1.646.24-.181.64-.151.8.071Zm40.112.05c.548.071.605.223.354.98a116.29 116.29 0 0 0-.856 2.787c-.286.919-.331 1.232-.24 1.444.057.141.114.313.114.373 0 .213-2.066-.191-2.375-.464-.16-.141-.16-.182.08-.404.183-.171.388-.697.697-1.747.24-.818.49-1.625.56-1.777.068-.162.125-.505.125-.767 0-.263.034-.515.091-.556.046-.04.286-.04.537-.01.251.04.662.101.913.142Zm-3.939.657c.72.202.742.222.776.586.069.737-.422.979-.833.424-.103-.142-.354-.323-.571-.414-.32-.132-.422-.142-.571-.03-.16.12-.16.15.011.312.103.101.423.293.72.414.57.243.765.384 1.062.778.456.596.08 1.464-.788 1.838-.72.303-1.484.282-2.74-.071l-.971-.283.057-.646c.034-.384.126-.707.228-.808.16-.131.206-.1.423.313.354.657.57.798 1.279.818.57.01.605 0 .605-.242 0-.202-.126-.313-.662-.566-1.017-.474-1.37-.838-1.37-1.393 0-.354.068-.525.273-.727.708-.677 1.485-.747 3.072-.303Zm-29.984-.111c.24.151.388.919.194 1.02-.069.04-.297-.02-.514-.132-.605-.333-1.564-.242-1.404.132.068.161.137.181 1.37.343.822.111 1.13.273 1.404.747.388.667-.011 1.485-.948 1.929-.456.212-.833.293-1.712.373-1.256.102-1.348.071-1.519-.514-.057-.192-.137-.445-.171-.566-.137-.384.24-.414.662-.05.206.161.48.333.628.373.411.111 1.096-.04 1.267-.272.229-.324-.068-.505-.981-.576-1.302-.121-1.793-.444-1.793-1.232 0-.404.057-.545.342-.808.48-.444.891-.606 1.93-.757.503-.06.948-.121.982-.131.034-.01.148.05.263.12Zm-5.139 1.313c.252.151.457.555.925 1.888.274.787.389.97.685 1.09.412.162.252.505-.274.586-.228.04-.582.131-.787.212-.263.101-.434.111-.594.03-.16-.08-.286-.05-.537.142-.8.595-1.895.757-2.455.373a1.112 1.112 0 0 1-.365-1.373c.205-.434.822-.99 1.507-1.363.548-.293.674-.566.354-.717-.514-.242-1.29.151-1.484.747-.115.364-.423.566-.56.364-.16-.212-.228-1.02-.114-1.212.069-.101.206-.192.297-.192s.41-.121.708-.262c1.062-.536 2.1-.647 2.694-.313Zm41.38.383c.81.222.822.222.822.566 0 .181-.045.414-.102.515-.252.424-.823 1.959-.788 2.11.057.273.525.283.845.03.365-.313 1.004-1.898.833-2.08-.068-.07-.091-.232-.046-.343.069-.182.138-.202.434-.141.708.13 1.485.404 1.599.555.08.111-.034.535-.423 1.515-.696 1.736-.696 1.726-.445 1.989l.206.232 1.37-.868c.753-.475 1.461-.889 1.576-.93.114-.03.194-.13.17-.222-.056-.242-.616-.252-1.061-.03-.662.354-.72-.04-.091-.676.308-.323.48-.424.65-.384.446.09 2.98 1.171 3.083 1.323.16.212 0 .343-1.393 1.181-1.827 1.09-1.77 1.05-1.553 1.242.24.222.88.202 1.325-.03.73-.404.754.06.023.717-.525.485-.8.585-1.04.373-.068-.06-.73-.353-1.46-.656-.732-.303-1.474-.636-1.645-.737a2.44 2.44 0 0 0-.754-.263c-.25-.04-.502-.1-.57-.151-.058-.04-.252-.101-.412-.131a.736.736 0 0 1-.41-.293c-.103-.212-.195-.232-1.04-.232-.753 0-.982-.04-1.244-.212-.503-.334-.491-.98.023-2.333.285-.747.4-1.181.354-1.404-.115-.515-.023-.535 1.164-.232Zm7.274.657c.205.434.365.484.982.343.433-.101.513-.101.639.06.183.223.148.263-.605.707-.525.303-.685.354-1.016.303-.274-.05-.446-.151-.56-.343-.206-.384-.32-1.333-.171-1.505.183-.192.525.01.73.435Zm-54.054.555c.137.121.445.606.696 1.09.24.475.525 1.01.617 1.192.091.172.297.404.468.515.263.172.285.222.16.364a1.19 1.19 0 0 1-.389.222c-.136.03-.559.191-.947.343-.434.182-.81.262-.994.232-.228-.04-.308-.01-.308.111 0 .091-.137.212-.308.283-.183.06-.594.222-.936.353-.8.313-1.108.283-1.062-.11.057-.425-.948-2.465-1.37-2.798-.183-.151-.297-.323-.263-.404.068-.151 1.256-.696 1.518-.696.08 0 .252.06.377.12.206.112.263.102.423-.12.262-.334.708-.707.993-.818.445-.162 1.073-.101 1.325.12Zm58.084 1.434c.171.08.457.202.64.282.593.253.616.415.159 1.03-.468.627-.525.485.514 1.293.309.242.651.606.777.818.822 1.424-.8 3.261-2.524 2.857-.536-.13-3.151-1.474-3.39-1.746-.218-.233-.184-.313.193-.445.251-.1.583-.474 1.325-1.545 1.45-2.07 1.45-2.08 1.484-2.312.012-.111.034-.242.034-.293.012-.11.468-.08.788.06Zm-63.576 1.1c.97.445 1.484 1.354 1.313 2.353-.149.889-1.576 1.899-2.89 2.04-1.073.111-1.872-.333-2.466-1.353-.102-.182-.182-.546-.182-.808 0-1.636 2.546-2.979 4.224-2.232Zm33.34 1.343c3.757.475 8.153 1.525 12.218 2.929 1.576.545 3.974 1.383 4.168 1.464.126.05.49.182.8.303.319.121.673.252.798.303.126.05.697.262 1.256.454a35.88 35.88 0 0 1 1.633.616c.331.131.628.242.663.242.034 0 .296.091.593.212.982.374 2.204.808 4.077 1.454.753.263 1.473.515 1.598.556 1.005.394 5.31 1.626 6.885 1.969 1.074.232 1.051.172 1.051 2.645 0 2.11-.069 2.555-.377 2.555-.4 0-5.15-1.414-7.102-2.12-.183-.071-.445-.162-.571-.212-.343-.122-1.336-.495-1.599-.596a31.48 31.48 0 0 0-.685-.253c-.25-.09-.776-.302-1.164-.464-.4-.162-.743-.293-.765-.293-.046 0-1.428-.545-3.609-1.434-.41-.171-.89-.363-1.084-.434-.183-.07-.834-.333-1.428-.575-1.039-.435-4.418-1.707-6.108-2.303a66.034 66.034 0 0 0-7.593-2.221c-1.553-.364-4.088-.697-6.086-.818-1.976-.111-4.956-.01-6.337.212-3.426.555-4.556.798-7.468 1.646-2.204.646-5.264 1.716-7.547 2.635-.503.202-.925.364-.96.364-.022 0-.32.11-.639.242-1.736.707-2.295.93-3.334 1.343-.628.253-1.587.636-2.135.848-.548.212-1.313.515-1.713.677-.4.171-1.359.535-2.147.828-.788.283-1.53.555-1.655.606-.126.05-.411.151-.628.232l-.743.273c-.182.07-.468.161-.628.212-.16.04-.799.242-1.427.444s-1.29.404-1.484.444a8.79 8.79 0 0 0-.628.192c-.16.05-.685.202-1.176.323-.708.172-.925.192-1.05.101-.138-.1-.172-.535-.172-2.433V33.92l.32-.151c.17-.07.49-.172.708-.212.216-.04.662-.142.97-.222 1.256-.323 2.866-.758 3.083-.838.126-.04 1.108-.364 2.17-.707a98.703 98.703 0 0 0 3.197-1.08 629.49 629.49 0 0 0 3.996-1.455 70.49 70.49 0 0 0 1.599-.595c1.256-.495 3.768-1.394 7.536-2.697.25-.08.582-.201.742-.252.776-.273 4.43-1.313 5.538-1.575 2.797-.667 5.32-1.07 7.821-1.272 1.142-.091 5.367.03 6.623.191Zm-39.335 1.162c1.187.474 1.884 1.363 1.884 2.413 0 .788-.331 1.323-1.222 2.01-.354.262-1.005.747-1.45 1.09-1.21.929-1.439.98-1.439.363 0-.14-.81-1.13-1.256-1.534-.091-.091-.502-.515-.913-.94-.503-.535-.845-.807-1.05-.848-.617-.11-.423-.444.764-1.333.606-.444 1.325-.928 1.599-1.08.89-.454 2.135-.515 3.083-.141Zm74.276 1.15c.091.061.376.203.628.314.673.303 1.632 1.191 1.712 1.605.103.434.023.546-1.084 1.727-.754.798-.914 1.03-.914 1.323 0 .272-.046.343-.217.343-.263 0-1.37-.858-1.496-1.171-.068-.162-.262-.273-.571-.343-.296-.071-.662-.283-.982-.556-.422-.384-.502-.515-.502-.848 0-.465.377-.919.914-1.12.479-.173 1.415-.051 2.249.292.628.272.685.272.811.111.08-.121.08-.242-.023-.414-.206-.364-.617-.515-1.279-.454-.868.06-.948-.091-.365-.616.491-.445.696-.475 1.119-.192Zm-34.952 2.697c4.316.616 4.762.707 8.575 1.817.97.283 2.101.626 2.512.758 2.296.777 3.209 1.11 3.86 1.363.4.161.753.293.776.293.035 0 .354.12.708.262l1.108.444c.25.101.81.324 1.233.495.434.172.8.313.833.313.023 0 .537.202 1.142.455.594.252 1.108.454 1.13.454.023 0 .389.142.823.313.422.162.879.344 1.005.394l.97.384c1.382.555 1.77.696 3.677 1.373 1.85.656 4.476 1.505 5.172 1.676.194.05.777.202 1.313.354.537.14 1.051.242 1.142.232.137-.03.183-.343.229-1.898l.057-1.869.296-.03c.537-.05.571.08.537 2.514l-.034 2.262-.32.03c-.183.02-.571-.03-.856-.12-.297-.081-1.336-.384-2.307-.667-2.352-.687-4.487-1.383-6.108-2.02-.126-.05-.48-.181-.8-.303-.89-.333-.982-.363-1.77-.686-.41-.172-.947-.374-1.198-.475-.252-.09-.606-.232-.8-.303-.182-.08-.65-.262-1.027-.404-.377-.151-.891-.353-1.142-.454-.72-.293-1.37-.545-2.969-1.161-.81-.313-1.587-.606-1.713-.656-.24-.091-.685-.263-1.598-.606-.308-.121-.674-.253-.8-.303-.913-.354-4.464-1.485-5.058-1.616-.217-.05-.525-.131-.685-.182-.868-.293-3.528-.888-5.218-1.16-2.672-.445-6.885-.576-9.363-.294-3.22.374-6.725 1.172-10.334 2.343-.536.172-1.118.353-1.313.414-.182.05-.445.131-.57.192a59.1 59.1 0 0 1-1.485.535c-1.93.687-3.985 1.454-5.366 2.01-1.496.595-1.759.706-2.512.989-.309.121-.674.252-.8.303-1.062.414-1.644.636-2.626 1-.628.232-1.245.464-1.37.514-.285.112-2.706.98-3.254 1.162a59.94 59.94 0 0 1-5.23 1.525c-1.199.292-1.393.242-1.393-.303 0-.515.069-.546 1.713-.97 1.062-.273 2.832-.787 3.14-.919.126-.05.594-.202 1.028-.353a65.119 65.119 0 0 0 2.683-.919c.217-.08.525-.192.685-.252.16-.05.445-.162.628-.233.194-.07.674-.252 1.085-.404a75.566 75.566 0 0 0 2.477-.969c.4-.162.743-.293.765-.293.035 0 .56-.202 1.165-.454.605-.253 1.153-.455 1.233-.455a.48.48 0 0 0 .252-.09c.056-.05 1.141-.475 2.409-.95 2.02-.767 2.797-1.05 5.343-1.908 3.163-1.07 7.308-2.06 10.174-2.413 2.272-.293 6.406-.334 8.141-.081Zm-14.958 4.019c.137.08.137.13-.011.333-.103.121-.274.323-.388.434-.126.111-.628.636-1.13 1.161-.503.525-1.028 1.07-1.165 1.212-.628.616-.822.858-.731.889.057.02.514-.222 1.039-.526 1.336-.797 2.33-.878 2.729-.242.285.434.023.95-.913 1.818-1.222 1.13-1.473 1.383-1.473 1.545 0 .252.559.171 1.244-.162.548-.273 1.896-1.12 2.067-1.303.034-.03.388-.282.788-.555.41-.283.856-.606 1.005-.727.148-.121.548-.373.867-.575.503-.303.697-.364 1.29-.374 1.108-.03 1.142.06.332.838-1.667 1.585-2.58 2.605-2.547 2.827.035.202.092.233.423.202.4-.04 1.21-.434 2.01-.969.25-.172.513-.343.57-.384.617-.394 2.444-1.827 2.501-1.949.034-.09.069-.252.069-.363 0-.212.4-.394.844-.394.32 0 .697.343.606.545-.103.233.228.465.639.465.548 0 1.507-.253 2.067-.545.525-.273 1.027-.344 1.153-.162.137.192-.171.394-1.473.97-1.873.837-1.907.858-2.147 1.07-.205.181-.194.181.286.171.902-.03 1.347.435.948 1.02-.389.586-.206.636.639.182.548-.283 2.34-1.444 2.49-1.585.033-.04.399-.334.833-.657.536-.424.765-.656.765-.828 0-.525.81-.838 1.324-.505a.537.537 0 0 1 .217.425c0 .222.069.313.32.383.434.142 1.576-.08 2.318-.454.616-.303 1.119-.374 1.244-.192.137.192-.182.404-1.244.858-1.165.505-2.01.91-2.181 1.04-.069.04-.217.132-.343.202-.194.091-.137.111.354.101.982-.01 1.37.334 1.028.95-.206.353-.228.585-.069.585.195 0 1.77-.888 2.296-1.292 1.975-1.525 3.493-2.292 5.16-2.605.948-.172 1.679-.051 2.022.343.194.222.25.232.422.11.114-.08.24-.18.285-.231.115-.142 1.257-.253 1.496-.142.274.121.252.182-.24.657-.24.222-.582.565-.753.747-.183.192-.56.565-.856.848-.868.828-1.154 1.161-1.154 1.373 0 .445.925.101 2.57-.959.559-.364 1.061-.666 1.118-.666.046 0 .115.07.149.151.08.172-.206.394-1.45 1.192-.96.605-1.462.828-2.078.918-.8.132-1.256-.11-1.496-.787-.069-.172-.091-.172-.445.06-.903.616-2.033.9-2.74.697-.515-.161-.88-.666-.88-1.252 0-.313-.046-.474-.148-.474-.138 0-.994.464-1.108.605-.103.121-1.199.778-1.599.96-.205.1-.628.181-.936.181-.765.01-1.119-.282-1.119-.949 0-.262-.034-.505-.091-.535-.263-.141-2.17.636-2.855 1.171-.262.202-.49.283-.685.263-.377-.04-.457-.313-.171-.535.194-.162 3.277-1.788 3.745-1.98l.491-.232c.228-.11.24-.141.08-.202a2.994 2.994 0 0 0-.628-.06c-.24 0-.48-.05-.514-.101-.148-.212-.582-.091-1.028.282-.685.576-2.386 1.768-3.242 2.283-1.599.939-2.866.767-2.866-.394 0-.233-.035-.445-.069-.475-.068-.06-1.142.232-1.644.455-.16.07-.594.313-.96.555-.787.505-1.267.545-1.267.131 0-.212.183-.343 1.085-.797.594-.303 1.37-.697 1.713-.89.342-.18.902-.453 1.222-.605.33-.161.57-.313.513-.353-.045-.04-.308-.091-.593-.122a9.805 9.805 0 0 1-.845-.12c-.183-.051-.354-.031-.4.02-.194.262-2.889 2.17-3.722 2.625-.834.464-1.176.575-1.793.575-.57.01-.696-.03-1.005-.292-.25-.212-.342-.384-.342-.637 0-.292.262-.868.468-1.03a.731.731 0 0 0 .137-.242c.08-.171.057-.171-.114-.05a2.73 2.73 0 0 0-.32.242c-.537.515-2.809 1.838-3.391 1.98-.605.14-1.188-.031-1.473-.455-.457-.667-.217-1.141 1.21-2.373.857-.758 1.062-.98.925-1.04-.206-.101-.765.131-1.861.777-1.621.96-2.946 2.1-5.081 4.342-.788.828-1.633 1.707-1.873 1.929-.89.838-1.142.565-.434-.434a73.795 73.795 0 0 1 3.734-4.706c.457-.505.343-.646-.206-.282-.536.363-.627.373-.627.12 0-.13.388-.464 1.107-.969 1.359-.939 2.067-1.535 3.528-2.948.617-.596 1.222-1.121 1.36-1.161.342-.091.89-.091 1.072.01Zm8.13.01c.525.252-.023 1.11-.72 1.11-.513 0-.776-.171-.776-.504 0-.536.88-.889 1.496-.606Zm4.716 8.643c.114.263-.274.97-.834 1.505-.296.303-.662.737-.799.98a5.238 5.238 0 0 1-.685.837 5.61 5.61 0 0 0-.685.778c-.148.212-.297.384-.354.384-.137 0-.263.565-.171.797.034.101.217.243.4.313.49.182 1.94 1.656 2.237 2.272.08.172.24.384.366.485.217.172.228.172.308-.202.034-.202.148-.464.24-.576.114-.151.16-.565.16-1.645 0-1.687-.035-1.646 1.301-1.646 1.05 0 1.21.05 1.21.394 0 .373.195.535.469.383.33-.182.605.03.65.495.046.485.16.596.469.454.205-.1.24-.212.24-.797 0-.404.057-.737.137-.808.17-.152 1.952-.162 2.272-.02.148.08.217.212.217.454 0 .364.091.434.308.242.069-.06.24-.09.388-.07l.274.03.035 6.341c.034 7.23.102 6.695-1.005 7.574-.685.545-1.462.797-2.432.797-.96-.01-1.519-.202-2.66-.939-1.793-1.151-1.793-1.161-1.873-4.584l-.057-2.727-.297-.03c-.217-.02-.446.101-.97.556-.994.838-1.748 1.15-3.175 1.282l-1.153.111-.057.404c-.069.464-.126.545-.663 1.13-.605.657-.456.839.925 1.192.742.182 1.61.818 1.542 1.131-.058.283-1.062.323-1.222.05-.137-.221-.81-.484-.81-.312 0 .05.125.202.273.323.149.121.297.323.343.444.045.131.148.232.24.232.353 0 .513.313.513.96 0 .838-.08.878-1.621.797-1.404-.07-1.838-.202-2.889-.878-1.667-1.07-1.998-1.495-2.09-2.686-.045-.616-.102-.808-.33-1.01-.149-.151-.297-.363-.332-.495-.045-.12-.114-.222-.16-.222-.194 0-.57-1.02-.57-1.545 0-.676.41-1.221 1.119-1.484.16-.06.25-.182.25-.353 0-.303-.068-.313-.513-.05-.183.11-.434.201-.537.201-.114 0-.388.222-.616.495-.252.303-.48.474-.571.444-.229-.08-.194-.252.125-.636.183-.222.286-.475.286-.717 0-.303.068-.414.388-.636.217-.142.445-.263.502-.263.058 0 .252-.171.434-.383a4.05 4.05 0 0 1 .434-.445c.08-.05.114-.818.08-2.302-.023-1.656 0-2.262.103-2.373.091-.1.343-.151.708-.151.434 0 .616-.05.81-.233.526-.504 1.005-.585 1.736-.313.24.081.537.132.674.101.137-.03.502-.404.845-.838 1.484-1.938 2.386-2.958 2.603-2.958.228 0 .034.383-.548 1.1-.274.323-.57.697-.662.818-.092.121-.548.667-.994 1.222-.799.96-.936 1.252-.765 1.646.103.232.469.202.56-.05.046-.112.342-.354.674-.546a4 4 0 0 0 .924-.727c.183-.212.902-.888 1.599-1.494.685-.616 1.507-1.374 1.804-1.687.537-.565.788-.646.925-.323Zm-34.3.485c1.039.161 2.477.646 3.277 1.09.913.516 3.083 2.192 3.562 2.757 1.313 1.545 2.067 3.706 2.09 6.008.022 2.12-1.085 4.463-2.73 5.756-.684.535-1.29.788-2.192.888-.388.05-.753.132-.822.192-.068.06-.114.758-.114 1.717.011 1.262-.023 1.646-.148 1.737-.103.08-.628.11-1.565.09l-1.416-.03-.057-.303c-.045-.252-.125-.313-.48-.363-.764-.111-.787-.172-.764-1.626l.034-1.292-.445-.404c-.24-.222-.491-.404-.548-.404-.252 0-3.049-2.1-3.049-2.282 0-.172-.046-.162 2.055-.152.914.01 1.724-.03 1.816-.08.125-.071.148-1.172.148-6.584-.011-5.837.012-6.513.171-6.675.217-.212.115-.212 1.177-.04Zm17.104 4.05c.331.13.868.464 1.199.726.32.263.697.535.822.596.423.212.845.788.948 1.303.057.282.114 3.14.125 6.361.023 5.008 0 5.887-.137 6.058-.148.162-.308.192-1.153.203-1.062 0-1.21-.061-1.21-.536 0-.191-.057-.222-.445-.222-.24 0-.491-.06-.56-.131-.069-.07-.137-.515-.16-.97-.023-.656-.08-.868-.228-.949-.137-.08-.24-.07-.366.02-.148.112-.182.374-.182 1.384 0 1.252 0 1.262-.297 1.353-.377.131-1.427.131-1.816 0-.194-.06-.308-.202-.354-.404-.068-.262-.125-.303-.434-.303-.57 0-.639-.141-.639-1.191 0-1.06-.171-1.465-.674-1.626-.17-.05-.48-.232-.696-.414-.217-.182-.628-.485-.914-.697-.616-.444-.685-.505-.605-.686.046-.101.366-.132 1.28-.132.798 0 1.29-.04 1.415-.131.171-.111.194-.525.217-4.11l.034-3.988.343-.455c.377-.484 1.221-1.05 1.815-1.201.194-.05.742-.101 1.21-.101.686-.01.983.04 1.462.242Zm31.834 0c1.005.363 1.667.716 2.398 1.312.137.11.582.454.982.757.868.646 1.382 1.222 1.838 2.01.685 1.181.982 2.241 1.005 3.514.023 1.363-.263 2.271-.993 3.13-.389.444-.343.626.17.818.595.222.926.676 1.006 1.363.114 1.02-.514 1.737-1.873 2.16-.422.132-1.062.172-2.82.193-1.256.01-2.398-.02-2.546-.071a.487.487 0 0 1-.332-.394c-.068-.262-.125-.303-.433-.303-.651 0-.697-.09-.697-1.272v-1.08l-.343-.233c-.182-.131-.833-.565-1.427-.98-.708-.484-1.084-.807-1.084-.938 0-.182.09-.192 1.301-.212.788-.01 1.348-.061 1.427-.132.092-.08.126-1.454.137-4.887.012-2.625.058-4.837.103-4.907.114-.172 1.553-.071 2.181.151Zm15.22 0c.343.14.777.413.983.595.194.182.559.454.822.596.525.292.913.727 1.073 1.201.057.182.103 3.04.103 6.493.011 5.715 0 6.17-.194 6.28-.115.082-.548.132-1.074.132-.787 0-.913-.03-1.062-.222-.102-.121-.182-.303-.182-.404 0-.131-.092-.182-.354-.182-.628 0-.81-.161-.788-.687.046-1.04 0-1.312-.194-1.373-.411-.141-.514.162-.503 1.353.012.737-.022 1.182-.114 1.273-.091.1-.41.141-1.119.141-1.062 0-1.267-.08-1.267-.475 0-.202-.057-.232-.388-.232-.663 0-.765-.182-.743-1.323.012-1.09-.057-1.262-.696-1.535-.525-.242-2.17-1.524-2.17-1.716 0-.192-.045-.192 1.565-.172.799.01 1.176-.03 1.244-.11.046-.072.08-1.808.069-3.868 0-3.262.023-3.807.183-4.241.296-.768 1.084-1.373 2.192-1.707.091-.03.582-.06 1.085-.06.742-.01 1.027.04 1.53.242Z"/>
  <path fill="#C00418" d="M57.6 18.401c.091.566.24.828.536.97.194.09.252.07.343-.162.103-.232.068-.333-.183-.666-.171-.223-.41-.445-.536-.505-.217-.101-.229-.081-.16.363Zm5.514-2.311c-.342.454-.125 2.05.308 2.292.24.131.731.09.891-.091.251-.262.194-1.727-.068-2.13-.286-.425-.845-.455-1.13-.071Zm10.415 1.514c-.114.131-.206.303-.206.374 0 .181.229.383.423.383.182 0 .605-.585.605-.838 0-.272-.582-.222-.822.081Zm-26.206 2.151c-.24.131-.377.606-.263.878.126.283.16.293.457.152.263-.121.377-.525.228-.848-.114-.273-.194-.313-.422-.182Zm-5.948.777c-.137.262-.012 1.07.194 1.313.057.05.125.222.16.363.102.374.593.798.913.798.229 0 .297-.06.331-.303.035-.172 0-.414-.08-.535a9.825 9.825 0 0 1-.33-.727c-.457-1.1-.914-1.444-1.188-.91Zm59.728 2.898c-.343.374-1.176 1.707-1.176 1.868 0 .354.205.475.708.445.308-.02.959-.657 1.176-1.172.194-.424.194-.505.045-.737-.239-.363-.605-.565-.753-.404Zm-65.46-.848a.6.6 0 0 0-.251.161c-.4.515.57 2.11 1.347 2.232.491.08.674-.07.674-.596 0-.808-1.153-1.99-1.77-1.797Zm-6.84 2.706c-.194.07-.354.202-.354.303 0 .161.697 1.05 1.13 1.444.103.1.389.393.64.666.89.97.913.98 1.37.626.434-.323.514-1 .194-1.545-.64-1.08-2.1-1.817-2.98-1.494Zm75.92 2.565c-.183.162-.206.252-.114.404.183.303.616.252.97-.121.286-.303.297-.334.103-.394-.388-.131-.731-.09-.959.111Zm-22.209 7.816c-1.906.888-3.39 3.19-2.043 3.19.64 0 2.02-.787 2.98-1.706 1.518-1.454.959-2.353-.936-1.484ZM71.78 46.534a.25.25 0 0 0 .184.1c.057 0 .102-.05.102-.1 0-.06-.08-.101-.182-.101-.092 0-.137.04-.103.1Zm-11.222 1.11c0 .192.02.273.053.172a.99.99 0 0 0 0-.354c-.032-.09-.053-.01-.053.182Zm15.392.656c0 .476.045.86.102.86.16 0 .24-.284.24-.86 0-.575-.08-.857-.24-.857-.057 0-.103.383-.103.858Zm-2.833-.454-.25.213v4.937c0 2.797.045 4.958.102 4.988.057.03.206-.02.343-.12.228-.172.24-.243.262-5.201.023-3.484 0-5.018-.091-5.018-.057 0-.229.09-.366.201ZM62.19 48.977c-.366.182-.4.283-.4 1.313 0 .888.023.99.206.99.353 0 1.313-.324 1.792-.596.548-.324 1.028-1.02.925-1.364-.057-.212-.16-.242-1.073-.353-1.21-.131-1.165-.131-1.45.01Zm-1.689 1.232c-.034.08-.034.413.011.737.057.505.08.545.149.282.114-.454.114-1.04 0-1.1-.057-.03-.126 0-.16.08Zm15.482 7.684c0 .222.02.303.039.172a1.437 1.437 0 0 0 0-.404c-.03-.091-.049.01-.039.232Zm-.377.555c-.068.111-.08.202-.023.202.069 0 .137-.09.172-.202.034-.11.034-.202.011-.202-.023 0-.091.091-.16.202Zm-.399.404c-.035.05-.012.101.045.101.069 0 .126-.05.126-.1 0-.061-.023-.102-.046-.102-.034 0-.091.04-.125.101Zm-.537.374c.08.03.183.02.218-.01.045-.03-.023-.06-.149-.05-.125 0-.16.03-.068.06ZM36.773 45.493c-.034.474.023 8.967.069 8.997.034.03.057-2 .057-4.504 0-2.514-.023-4.564-.057-4.564-.035 0-.057.03-.069.07Zm1.04 4.867c0 3.797.01 3.929.216 3.878.286-.06.857-1.12 1.085-2.02.4-1.564.114-3.624-.708-5.19-.102-.212-.285-.423-.388-.484-.194-.111-.206.1-.206 3.817Zm4.727.111c0 .97.019 1.373.028.879.02-.485.02-1.273 0-1.767-.01-.485-.029-.081-.029.888Zm-.366 2.06c-.012.101-.274.646-.594 1.222-.308.575-.57 1.09-.57 1.151 0 .06-.046.111-.104.111-.057 0-.125.09-.16.202-.034.111-.01.202.046.202.057 0 .103-.07.103-.151 0-.071.069-.182.148-.223.194-.11.994-1.282.994-1.464a.39.39 0 0 1 .125-.252c.057-.05.103-.303.069-.546-.023-.242-.046-.363-.057-.252Zm-1.781 3.04c-.034.081-.011.152.046.152.148 0 .25-.182.125-.243-.057-.03-.125.01-.171.091Zm-.353.353c-.035.05-.024.101.045.101.057 0 .148-.05.183-.1.034-.061.022-.102-.046-.102-.057 0-.148.04-.183.101Zm-.287.313c0 .05.057.071.114.04.069-.03.114-.08.114-.11 0-.02-.045-.04-.114-.04-.057 0-.114.05-.114.11Zm-2.98.919c-.034.333.034 3.261.08 3.302.023.02.045-.737.045-1.687 0-.959-.022-1.736-.057-1.736-.034 0-.068.06-.068.12ZM49.459 47.15c0 .11.057.171.114.141.069-.03.114-.131.114-.212 0-.08-.045-.141-.114-.141-.057 0-.114.09-.114.212Zm1.21.645c-.16.212-.183.687-.183 3.666 0 3.261.012 3.433.217 3.483.114.02.297 0 .4-.05.16-.08.183-.465.183-3.716 0-3.494-.012-3.635-.217-3.635-.114 0-.297.11-.4.252Zm3.128.96c-.034.696-.034 3.422 0 6.058l.057 4.796.057-5.15c.035-2.837.035-5.563 0-6.058l-.068-.909-.046 1.263Zm-4.304 2.12c0 .414.02.586.039.374a4.96 4.96 0 0 0 0-.758c-.02-.202-.039-.03-.039.384Zm34.472-1.312c0 .192.021.273.053.172a.99.99 0 0 0 0-.354c-.032-.09-.053-.01-.053.182Zm1.005 2.474c0 1.363.034 2.474.091 2.474.24 0 .605-1.03.765-2.222.103-.757-.445-2.726-.765-2.726-.046 0-.091 1.11-.091 2.474Zm3.79.807a9.68 9.68 0 0 1-.091.808c-.057.303-.046.373.057.293.091-.071.126-.364.091-.808-.011-.384-.045-.515-.057-.293Zm-.4 1.495c-.125.293-.102.535.046.404.069-.06.103-.212.08-.344-.034-.212-.045-.222-.125-.06Zm-.365.626a.753.753 0 0 1-.251.283c-.08.05-.126.131-.08.181.102.152.525-.282.468-.494-.035-.152-.057-.152-.137.03Zm-2.911 2.868c0 .242.206.313.697.222.228-.04.4-.142.422-.243.034-.141-.057-.171-.537-.171-.49 0-.582.03-.582.192Zm3.906.262c0 .162.02.222.052.121a.728.728 0 0 0 0-.303c-.032-.06-.053.01-.053.182Zm-.299.445c-.046.07-.057.15-.023.18.103.092.217-.04.16-.18-.046-.112-.068-.112-.137 0ZM96.4 47.917c.022.929.068.828.125-.253.023-.343 0-.626-.046-.626-.057 0-.08.394-.08.879Zm1.244-.101c-.183.353-.274 6.877-.091 7.068.125.142.65.182.673.05.058-.464.069-4.856.023-5.957-.057-1.252-.091-1.434-.262-1.434-.103 0-.263.122-.343.273Zm3.105 5.724c-.012 3.333 0 6.029.022 6.009.092-.081.149-8.694.069-10.39-.046-1.071-.08.504-.091 4.382Zm-4.315-1.705c0 1.666.019 2.363.029 1.545.02-.818.02-2.181 0-3.03-.01-.848-.03-.181-.03 1.485Zm0 6.462c0 .717.01 1 .029.626.02-.374.02-.97 0-1.313-.02-.343-.03-.04-.03.687Z"/>
</svg>
