<svg xmlns="http://www.w3.org/2000/svg" width="20" height="20" fill="none" viewBox="0 0 20 20">
  <g clip-path="url(#a)">
    <path stroke="#C00418" stroke-linecap="round" stroke-linejoin="round" stroke-width="2" d="M18.333 14.1v2.5a1.667 1.667 0 0 1-1.816 1.667 16.492 16.492 0 0 1-7.192-2.558 16.25 16.25 0 0 1-5-5 16.491 16.491 0 0 1-2.558-7.225 1.666 1.666 0 0 1 1.658-1.817h2.5A1.667 1.667 0 0 1 7.592 3.1c.105.8.3 1.586.583 2.342A1.667 1.667 0 0 1 7.8 7.2L6.742 8.26a13.334 13.334 0 0 0 5 5L12.8 12.2a1.666 1.666 0 0 1 1.758-.375 10.7 10.7 0 0 0 2.342.584 1.666 1.666 0 0 1 1.433 1.691Z"/>
  </g>
  <defs>
    <clipPath id="a">
      <path fill="#fff" d="M0 0h20v20H0z"/>
    </clipPath>
  </defs>
</svg>
