<svg xmlns="http://www.w3.org/2000/svg" width="65" height="55" fill="none" viewBox="0 0 65 55">
  <path fill="#C00418" d="M34.502 16.739a1.278 1.278 0 0 0 1.01.125c.339-.097.625-.32.805-.628.186-.318.237-.686.145-1.035a1.288 1.288 0 0 0-.598-.792c-.626-.365-1.441-.139-1.814.503a1.357 1.357 0 0 0-.145 1.034c.087.338.299.62.597.793Zm.267-1.405a.524.524 0 0 1 .447-.265c.078 0 .157.02.226.06.105.062.18.162.212.284a.526.526 0 0 1-.058.401v.002a.522.522 0 0 1-.313.245.458.458 0 0 1-.572-.326.523.523 0 0 1 .058-.401Z"/>
  <path stroke="#C00418" d="M34.502 16.739a1.278 1.278 0 0 0 1.01.125c.339-.097.625-.32.805-.628.186-.318.237-.686.145-1.035a1.288 1.288 0 0 0-.598-.792c-.626-.365-1.441-.139-1.814.503a1.357 1.357 0 0 0-.145 1.034c.087.338.299.62.597.793Zm.267-1.405a.524.524 0 0 1 .447-.265c.078 0 .157.02.226.06.105.062.18.162.212.284a.526.526 0 0 1-.058.401v.002a.522.522 0 0 1-.313.245.458.458 0 0 1-.572-.326.523.523 0 0 1 .058-.401Z"/>
  <path fill="#C00418" d="M30.52 25.298c0-.942-.441-1.682-.492-1.763l-.568-.918-.567.918a3.61 3.61 0 0 0-.492 1.763c0 .943.44 1.682.492 1.764l.567.917.568-.918c.05-.08.491-.82.491-1.763Zm-1.06 1.413s-.39-.633-.39-1.413.39-1.412.39-1.412.391.632.391 1.412c0 .78-.39 1.413-.39 1.413Z"/>
  <path stroke="#C00418" d="M30.52 25.298c0-.942-.441-1.682-.492-1.763l-.568-.918-.567.918a3.61 3.61 0 0 0-.492 1.763c0 .943.44 1.682.492 1.764l.567.917.568-.918c.05-.08.491-.82.491-1.763Zm-1.06 1.413s-.39-.633-.39-1.413.39-1.412.39-1.412.391.632.391 1.412c0 .78-.39 1.413-.39 1.413Z"/>
  <path fill="#C00418" d="M26.762 29.781a3.62 3.62 0 0 0-.9 1.594l-.247 1.05 1.05-.247a3.613 3.613 0 0 0 1.594-.9c.667-.666.878-1.5.9-1.593l.248-1.051-1.051.247a3.625 3.625 0 0 0-1.594.9Zm1.026 1.026c-.551.551-1.274.722-1.274.722s.17-.723.722-1.274c.55-.552 1.274-.722 1.274-.722s-.17.723-.722 1.274Z"/>
  <path stroke="#C00418" d="M26.762 29.781a3.62 3.62 0 0 0-.9 1.594l-.247 1.05 1.05-.247a3.613 3.613 0 0 0 1.594-.9c.667-.666.878-1.5.9-1.593l.248-1.051-1.051.247a3.625 3.625 0 0 0-1.594.9Zm1.026 1.026c-.551.551-1.274.722-1.274.722s.17-.723.722-1.274c.55-.552 1.274-.722 1.274-.722s-.17.723-.722 1.274Z"/>
  <path fill="#C00418" d="M32.158 29.781a3.619 3.619 0 0 0-1.594-.9l-1.05-.247.247 1.05a3.6 3.6 0 0 0 .9 1.594 3.62 3.62 0 0 0 1.594.9l1.05.248-.247-1.051a3.614 3.614 0 0 0-.9-1.594Zm-1.025 1.025c-.552-.55-.722-1.275-.722-1.275s.723.171 1.275.722c.551.552.722 1.275.722 1.275s-.723-.17-1.275-.722Z"/>
  <path stroke="#C00418" d="M32.158 29.781a3.619 3.619 0 0 0-1.594-.9l-1.05-.247.247 1.05a3.6 3.6 0 0 0 .9 1.594 3.62 3.62 0 0 0 1.594.9l1.05.248-.247-1.051a3.614 3.614 0 0 0-.9-1.594Zm-1.025 1.025c-.552-.55-.722-1.275-.722-1.275s.723.171 1.275.722c.551.552.722 1.275.722 1.275s-.723-.17-1.275-.722Z"/>
  <path fill="#C00418" d="M27.838 28.527c.267 0 .435-.027.435-.027l1.054-.17-.608-.873a3.627 3.627 0 0 0-1.428-1.146 3.574 3.574 0 0 0-1.38-.268c-.266 0-.434.027-.434.027l-1.055.17.608.874c.055.078.562.774 1.429 1.145a3.57 3.57 0 0 0 1.38.268Zm-2.262-1.797s.13-.02.334-.02c.282 0 .702.037 1.117.214.717.306 1.145.914 1.145.914s-.131.02-.335.02c-.281 0-.702-.038-1.116-.214-.718-.305-1.145-.914-1.145-.914Z"/>
  <path stroke="#C00418" d="M27.838 28.527c.267 0 .435-.027.435-.027l1.054-.17-.608-.873a3.627 3.627 0 0 0-1.428-1.146 3.574 3.574 0 0 0-1.38-.268c-.266 0-.434.027-.434.027l-1.055.17.608.874c.055.078.562.774 1.429 1.145a3.57 3.57 0 0 0 1.38.268Zm-2.262-1.797s.13-.02.334-.02c.282 0 .702.037 1.117.214.717.306 1.145.914 1.145.914s-.131.02-.335.02c-.281 0-.702-.038-1.116-.214-.718-.305-1.145-.914-1.145-.914Z"/>
  <path fill="#C00418" d="M33.443 26.07s-.17-.027-.435-.027c-.343 0-.86.047-1.379.268a3.606 3.606 0 0 0-1.429 1.145l-.614.873 1.06.171s.17.027.435.027c.343 0 .86-.047 1.38-.268a3.607 3.607 0 0 0 1.428-1.145l.614-.873-1.06-.17Zm-1.245 1.575a2.88 2.88 0 0 1-1.117.214c-.205 0-.334-.02-.334-.02s.427-.607 1.145-.914a2.881 2.881 0 0 1 1.116-.214c.205 0 .335.02.335.02s-.428.608-1.145.914Z"/>
  <path stroke="#C00418" d="M33.443 26.07s-.17-.027-.435-.027c-.343 0-.86.047-1.379.268a3.606 3.606 0 0 0-1.429 1.145l-.614.873 1.06.171s.17.027.435.027c.343 0 .86-.047 1.38-.268a3.607 3.607 0 0 0 1.428-1.145l.614-.873-1.06-.17Zm-1.245 1.575a2.88 2.88 0 0 1-1.117.214c-.205 0-.334-.02-.334-.02s.427-.607 1.145-.914a2.881 2.881 0 0 1 1.116-.214c.205 0 .335.02.335.02s-.428.608-1.145.914Z"/>
  <path fill="#C00418" d="M65 31.052c0-.58-.044-1.152-.112-1.72l-.004.005c.016-.09.033-.178.033-.268 0-.837-.684-1.588-1.89-2.257-.308-2.323-1.819-3.985-3.307-5.15 2.474-.765 5.219-3.127 5.197-6.074-.023-3.128-2.493-6.002-5.65-6.735.703-1.918.447-3.852-.745-5.516-1.611-2.248-4.606-3.508-7.466-3.131-2.697.353-4.832 2.055-6.074 4.817-2.796-1.54-7.14-1.592-9.162.746-1.168 1.349-1.756 3.16-1.784 5.158-2.518-.592-5.19-.688-7.625-.208a5.579 5.579 0 0 0-1.26-.087 4.68 4.68 0 0 0 .376-1.763c.043-1.677-.671-3.37-1.911-4.526-2-1.865-5.091-2.26-7.228-1.023C15.383 1.553 13.713.47 11.714.314c-2.125-.165-4.228.814-5.315 2.5-.64.995-1.444 3.052-.055 6.058a6.374 6.374 0 0 0-3.314 2.31 4.651 4.651 0 0 0-.79 1.7 7.43 7.43 0 0 0-.954.971c-2.911 3.619-.416 9.278 2.882 12.979-1.181.664-1.852 1.409-1.852 2.237 0 .14.024.278.062.414-.058.52-.103 1.04-.103 1.57 0 .204.014.407.022.61l-.022.003c.005.03.021.055.026.085.375 7.775 6.963 14.49 16.53 17.953-.397.283-.724.66-.724 1.153 0 2.36 8.173 4.002 15.51 4.002 7.335 0 15.508-1.644 15.508-4.002 0-.488-.32-.86-.712-1.143C58.283 46.15 65 39.13 65 31.052Zm-1.92-2.882c.426.308.657.611.657.897 0 .363-.355.75-1.03 1.144a8.543 8.543 0 0 0 .373-2.041ZM36.71 6.54c1.71-1.977 5.95-1.745 8.218-.168l.62.431.267-.706c1.027-2.724 2.943-4.401 5.395-4.724 2.4-.312 5.013.775 6.356 2.65 1.075 1.5 1.197 3.283.34 5.02l-.369.749.83.096c2.893.338 5.353 2.952 5.373 5.709.02 2.738-3.316 5.074-5.505 5.147l-1.835.061 1.527 1.018c2.545 1.694 3.807 3.407 3.974 5.387.103 1.239-.152 2.509-.693 3.69-1.323.496-3.145.983-5.422 1.419l-.483.077c1.514-4.418 1.3-9.298-1.667-11.535-4.122-3.105-11.678.284-15.433 5.267a12.64 12.64 0 0 0-1.024 1.598 7.787 7.787 0 0 0-3.306-6.122c5.033.124 9.122-2.217 10.481-3.1.743.095 1.428.154 2.01.154 3.127 0 4.078-1.194 4.32-1.633.3-.545.269-1.152-.079-1.545a1.045 1.045 0 0 0-.71-.338c.03-.115.072-.23.084-.345a2.008 2.008 0 0 0-.642-1.727c-.435-.386-1.063-.576-1.72-.527-.455.035-.866.18-1.188.422-.408.304-.665.766-.672 1.204l.667.01c.003-.228.167-.501.405-.68.278-.209.61-.272.839-.29.478-.037.925.093 1.225.36.314.28.472.71.423 1.154-.065.573-.476 1.19-1.076 1.612-.497.349-1.106.58-1.915.723-.324.058-.648.098-.972.138-.134.017-.269.041-.403.06l-.26-.096c-1.315-.483-4.679-3.295-5.956-4.405-1.076-.627-2.268-1.127-3.514-1.509-.035-1.844.45-3.504 1.49-4.707Zm10.748 22.516c-1.088-.819-2.447-1.144-3.822-.913a5.448 5.448 0 0 0-3.454 2.118c-.806 1.07-1.127 2.327-1.067 3.544-.57.018-1.143.033-1.721.046a6.466 6.466 0 0 1-.15-.648c-.358-2.053.296-4.257 1.89-6.374 2.517-3.341 7.026-6 10.615-6 1.2 0 2.295.296 3.18.962 2.643 1.991 2.625 6.692 1.05 10.803-1.42.203-2.95.388-4.574.55.02-1.571-.638-3.102-1.947-4.088Zm1.274 4.154c-2.757.263-5.766.46-8.95.575a4.731 4.731 0 0 1 .935-3.123 4.783 4.783 0 0 1 3.03-1.86 4.44 4.44 0 0 1 .75-.063c.929 0 1.817.292 2.56.851 1.153.869 1.717 2.228 1.675 3.62Zm-15.704.681a171.87 171.87 0 0 1-7.56-.192c-1.825-1.256-3.034-3.345-3.034-5.723a6.968 6.968 0 0 1 6.96-6.962 6.97 6.97 0 0 1 6.962 6.962c0 2.504-1.338 4.689-3.328 5.915Zm3.19-.019c-.588.008-1.18.014-1.776.017a7.88 7.88 0 0 0 1.555-1.787 7.24 7.24 0 0 0 .099 1.301c.028.16.082.313.122.47ZM23.456 22.62c.14-.037.261-.078.395-.117a7.81 7.81 0 0 0-1.747 2.735 7.13 7.13 0 0 1-.248-.65c-.163-.497-.315-1-.464-1.5.6-.108 1.28-.257 2.064-.468Zm-2.307-.339c-.486-1.632-.99-3.246-1.757-4.756.215-.519.455-1.036.755-1.548a7.283 7.283 0 0 1 1.17-1.473c1.015 3.373 5.04 4.877 6.742 5.37-.738.427-2.402 1.29-4.822 1.94a22.88 22.88 0 0 1-2.088.467Zm24.011-4.345.061-.045c.07-.012.142-.025.212-.034.336-.041.672-.083 1.007-.143.909-.162 1.601-.427 2.183-.834.411-.29.74-.651.976-1.042.208-.061.392-.041.504.085.16.18.157.486-.006.782-.446.807-1.973 1.491-4.937 1.23Zm-7.108-4.238c.383.337 3.31 2.893 5.27 4.07-2.085 1.253-7.872 4.11-14.002 1.776-.166-3.45 3.381-6.687 4.355-7.508 1.577.354 3.08.908 4.377 1.662Zm-5.42-1.863c-1.37 1.243-4.056 4.077-4.156 7.285-1.487-.417-5.734-1.895-6.45-5.237 2.665-2.077 6.768-2.673 10.606-2.048ZM7.29 9.872l.857-.112-.417-.756C6.566 6.888 6.444 4.916 7.388 3.45c.857-1.326 2.522-2.094 4.235-1.965 1.78.14 3.238 1.209 4.003 2.936l.31.7.598-.48c1.653-1.33 4.526-1.074 6.278.56.983.917 1.572 2.31 1.537 3.636-.024.95-.367 1.75-.967 2.253l-2.968 2.496.253-.106a8.473 8.473 0 0 0-1.527 1.906 13.18 13.18 0 0 0-.472.89 12.24 12.24 0 0 0-.543-.786c-2.868-3.717-9.389-5.816-13.96-3.817.783-.947 1.971-1.651 3.125-1.802Zm-3.433 3.353c3.675-2.108 9.318-1.023 12.318 1.832 2.485 2.364 3.424 5.838 4.324 9.03.279.992.685 1.921 1.184 2.8a7.7 7.7 0 0 0-.085 1.088c0 .078.01.154.013.23l-5.537-3.91-4.037-9.858-.619.254 3.641 8.886-5.99-4.229-1.584-4.675-.632.214 1.29 3.808-4.685-3.308-.384.545 12.455 8.795.004.01.006-.003 6.146 4.34c.022.16.05.32.084.478-.349-.091-.746-.096-1.345 0-1.843.294-3.55.851-5.45.862-4.332.024-8.291-1.846-10.765-5.446-2.296-3.338-4.959-9.1-.352-11.743Zm1.123 14.46c.933.922 1.896 1.678 2.8 2.172 3.019 1.648 6.522 2.035 9.89 1.518 1.583-.243 3.108-.835 4.625-.203.42.93 1.018 1.76 1.75 2.453-4.898-.28-9.272-.755-12.79-1.345-5.002-.976-7.76-2.193-7.76-3.211 0-.437.515-.91 1.485-1.383Zm28.636 25.997c-8.471 0-14.114-1.971-14.334-2.805.001-.003.134-.28 1.11-.648 4.025 1.266 8.51 1.979 13.244 1.979 4.725 0 9.202-.71 13.22-1.97.916.343 1.08.607 1.091.607-.225.868-5.865 2.837-14.33 2.837Zm.022-2.653c-15.215 0-27.828-7.49-29.883-17.191 3.198 2.365 10.746 2.79 15.224 3.037.46.025.879.048 1.245.072 4.956.312 10.068.56 15.235.56 5.97 0 12.012-.332 17.963-1.282l-.106-.66c-11.034 1.762-22.405 1.385-33.05.715-.368-.024-.788-.047-1.25-.072-4.407-.244-12.984-.718-15.436-3.382a13.417 13.417 0 0 1-.121-1.38c1.504.67 3.696 1.255 6.324 1.751 6.04 1.34 14.965 2.03 23.833 2.03 8.752 0 17.564-.67 23.598-1.976 2.754-.507 5.044-1.111 6.6-1.805-.317 10.834-13.733 19.583-30.176 19.583Z"/>
</svg>
