<svg xmlns="http://www.w3.org/2000/svg" width="31" height="32" fill="none" viewBox="0 0 31 32">
  <g clip-path="url(#a)">
    <path fill="#C00418" d="M16.455 10.703a.595.595 0 0 0 .482.061.653.653 0 0 0 .384-.309.685.685 0 0 0 .069-.51.632.632 0 0 0-.286-.39.625.625 0 0 0-.865.248.687.687 0 0 0-.069.51.627.627 0 0 0 .285.39Zm.128-.692a.249.249 0 0 1 .212-.13.21.21 0 0 1 .108.03c.05.03.086.08.101.139a.266.266 0 0 1-.027.197v.001a.25.25 0 0 1-.15.12.215.215 0 0 1-.273-.16.264.264 0 0 1 .029-.197Z"/>
    <path stroke="#C00418" d="M16.455 10.703a.595.595 0 0 0 .482.061.653.653 0 0 0 .384-.309.685.685 0 0 0 .069-.51.632.632 0 0 0-.286-.39.625.625 0 0 0-.865.248.687.687 0 0 0-.069.51.627.627 0 0 0 .285.39Zm.128-.692a.249.249 0 0 1 .212-.13.21.21 0 0 1 .108.03c.05.03.086.08.101.139a.266.266 0 0 1-.027.197v.001a.25.25 0 0 1-.15.12.215.215 0 0 1-.273-.16.264.264 0 0 1 .029-.197Z"/>
    <path fill="#C00418" d="M14.556 14.916c0-.464-.21-.829-.235-.869l-.27-.451-.271.451c-.024.04-.235.405-.235.869 0 .463.21.828.235.868l.27.451.271-.451a1.82 1.82 0 0 0 .235-.868Zm-.505.695s-.187-.312-.187-.695c0-.384.186-.696.186-.696s.187.312.187.696c0 .383-.187.695-.187.695Z"/>
    <path stroke="#C00418" d="M14.556 14.916c0-.464-.21-.829-.235-.869l-.27-.451-.271.451c-.024.04-.235.405-.235.869 0 .463.21.828.235.868l.27.451.271-.451a1.82 1.82 0 0 0 .235-.868Zm-.505.695s-.187-.312-.187-.695c0-.384.186-.696.186-.696s.187.312.187.696c0 .383-.187.695-.187.695Z"/>
    <path fill="#C00418" d="M12.764 17.123a1.801 1.801 0 0 0-.43.785l-.118.517.501-.122c.045-.01.443-.114.76-.443.319-.328.419-.738.43-.784l.118-.517-.501.121a1.712 1.712 0 0 0-.76.443Zm.489.505c-.263.272-.608.356-.608.356s.081-.356.344-.628c.263-.27.608-.355.608-.355s-.081.356-.344.627Z"/>
    <path stroke="#C00418" d="M12.764 17.123a1.801 1.801 0 0 0-.43.785l-.118.517.501-.122c.045-.01.443-.114.76-.443.319-.328.419-.738.43-.784l.118-.517-.501.121a1.712 1.712 0 0 0-.76.443Zm.489.505c-.263.272-.608.356-.608.356s.081-.356.344-.628c.263-.27.608-.355.608-.355s-.081.356-.344.627Z"/>
    <path fill="#C00418" d="M15.337 17.123a1.71 1.71 0 0 0-.76-.443l-.501-.121.118.517c.01.046.11.457.429.784.318.329.716.433.76.444l.501.121-.118-.517a1.799 1.799 0 0 0-.43-.785Zm-.489.505c-.263-.27-.344-.628-.344-.628s.345.085.608.356c.262.271.344.627.344.627s-.345-.084-.608-.355Z"/>
    <path stroke="#C00418" d="M15.337 17.123a1.71 1.71 0 0 0-.76-.443l-.501-.121.118.517c.01.046.11.457.429.784.318.329.716.433.76.444l.501.121-.118-.517a1.799 1.799 0 0 0-.43-.785Zm-.489.505c-.263-.27-.344-.628-.344-.628s.345.085.608.356c.262.271.344.627.344.627s-.345-.084-.608-.355Z"/>
    <path fill="#C00418" d="M13.277 16.505c.127 0 .207-.013.207-.013l.503-.084-.29-.43a1.745 1.745 0 0 0-.682-.564 1.658 1.658 0 0 0-.865-.118l-.502.083.29.43c.026.039.267.381.68.564.248.109.495.132.659.132Zm-1.08-.885s.063-.01.16-.01c.134 0 .335.019.533.106.342.15.546.45.546.45s-.063.01-.16.01c-.134 0-.335-.019-.533-.106a1.43 1.43 0 0 1-.546-.45Z"/>
    <path stroke="#C00418" d="M13.277 16.505c.127 0 .207-.013.207-.013l.503-.084-.29-.43a1.745 1.745 0 0 0-.682-.564 1.658 1.658 0 0 0-.865-.118l-.502.083.29.43c.026.039.267.381.68.564.248.109.495.132.659.132Zm-1.08-.885s.063-.01.16-.01c.134 0 .335.019.533.106.342.15.546.45.546.45s-.063.01-.16.01c-.134 0-.335-.019-.533-.106a1.43 1.43 0 0 1-.546-.45Z"/>
    <path fill="#C00418" d="M15.95 15.296s-.081-.014-.208-.014c-.163 0-.41.023-.658.132a1.736 1.736 0 0 0-.681.564l-.293.43.506.084s.08.013.207.013c.164 0 .41-.023.658-.132.414-.182.655-.525.682-.564l.292-.43-.505-.083Zm-.594.775a1.334 1.334 0 0 1-.533.105c-.098 0-.16-.01-.16-.01s.205-.299.547-.45a1.335 1.335 0 0 1 .692-.095s-.204.3-.546.45Z"/>
    <path stroke="#C00418" d="M15.95 15.296s-.081-.014-.208-.014c-.163 0-.41.023-.658.132a1.736 1.736 0 0 0-.681.564l-.293.43.506.084s.08.013.207.013c.164 0 .41-.023.658-.132.414-.182.655-.525.682-.564l.292-.43-.505-.083Zm-.594.775a1.334 1.334 0 0 1-.533.105c-.098 0-.16-.01-.16-.01s.205-.299.547-.45a1.335 1.335 0 0 1 .692-.095s-.204.3-.546.45Z"/>
    <path fill="#C00418" d="M31 17.749c0-.285-.02-.567-.053-.847l-.002.002c.007-.044.016-.087.016-.132 0-.412-.327-.781-.902-1.11-.147-1.144-.867-1.963-1.577-2.536 1.18-.377 2.489-1.54 2.479-2.99-.012-1.54-1.19-2.955-2.695-3.316.335-.944.213-1.896-.355-2.716-.769-1.106-2.197-1.727-3.561-1.541-1.286.174-2.305 1.012-2.897 2.372-1.334-.758-3.405-.784-4.37.367-.557.664-.837 1.555-.85 2.54-1.201-.293-2.476-.34-3.637-.104a2.59 2.59 0 0 0-.601-.042c.11-.26.172-.553.18-.868.02-.826-.32-1.66-.912-2.229-.954-.918-2.428-1.112-3.447-.503-.48-.87-1.276-1.403-2.23-1.48-1.013-.081-2.016.4-2.534 1.231-.306.49-.689 1.502-.027 2.982a3.042 3.042 0 0 0-1.58 1.138 2.31 2.31 0 0 0-.377.837 3.507 3.507 0 0 0-.455.478c-1.388 1.781-.198 4.567 1.375 6.389-.564.327-.883.694-.883 1.101 0 .07.01.137.029.204a7.2 7.2 0 0 0-.049.773c0 .1.007.2.01.3l-.01.002c.002.014.01.027.012.042.179 3.828 3.321 7.133 7.884 8.838-.19.14-.346.325-.346.568 0 1.161 3.899 1.97 7.397 1.97 3.5 0 7.397-.81 7.397-1.97 0-.24-.152-.424-.34-.563C27.797 25.181 31 21.726 31 17.75Zm-.915-1.42c.203.153.313.302.313.443 0 .178-.17.369-.49.563.096-.33.16-.667.177-1.005ZM17.508 5.682c.815-.973 2.837-.859 3.919-.082l.295.212.128-.348c.49-1.34 1.403-2.167 2.573-2.325 1.145-.154 2.39.381 3.031 1.304.513.739.57 1.616.162 2.471l-.175.37.395.047c1.38.166 2.553 1.453 2.563 2.81.01 1.348-1.582 2.498-2.626 2.534l-.875.03.728.501c1.214.834 1.816 1.677 1.895 2.652.05.61-.072 1.235-.33 1.817-.63.244-1.5.484-2.586.698l-.23.038c.722-2.175.62-4.577-.795-5.679-1.966-1.528-5.57.14-7.36 2.594-.19.259-.35.522-.489.786a3.867 3.867 0 0 0-1.577-3.014c2.4.061 4.35-1.091 4.999-1.526.355.047.68.076.959.076 1.491 0 1.944-.588 2.06-.804.143-.268.128-.567-.038-.76a.493.493 0 0 0-.338-.167c.014-.057.034-.113.04-.17a1.006 1.006 0 0 0-.307-.85 1.086 1.086 0 0 0-.82-.26 1.055 1.055 0 0 0-.567.208.795.795 0 0 0-.32.593l.318.005c.002-.112.08-.247.193-.334a.751.751 0 0 1 .4-.144.77.77 0 0 1 .585.178.67.67 0 0 1 .201.568c-.03.282-.227.586-.513.793-.237.172-.527.286-.913.357a8.36 8.36 0 0 1-.464.067c-.064.008-.128.02-.192.03l-.124-.048c-.627-.237-2.231-1.622-2.84-2.168a7.84 7.84 0 0 0-1.676-.743c-.017-.908.214-1.725.71-2.317Zm5.125 11.085a2.3 2.3 0 0 0-1.823-.45 2.587 2.587 0 0 0-1.647 1.043 2.72 2.72 0 0 0-.509 1.745c-.271.009-.545.016-.82.023a3.22 3.22 0 0 1-.072-.32c-.17-1.01.141-2.095.901-3.137 1.2-1.645 3.351-2.954 5.063-2.954.572 0 1.094.145 1.516.474 1.26.98 1.252 3.294.501 5.318-.677.1-1.407.19-2.181.27.01-.773-.305-1.527-.929-2.012Zm.608 2.045c-1.315.13-2.75.227-4.269.283a2.383 2.383 0 0 1 .446-1.537 2.272 2.272 0 0 1 1.445-.916c.12-.021.24-.031.358-.031.443 0 .867.144 1.22.42.55.426.82 1.096.8 1.781Zm-7.49.335a79.376 79.376 0 0 1-3.605-.094 3.448 3.448 0 0 1-1.447-2.818c0-1.89 1.489-3.427 3.32-3.427 1.83 0 3.32 1.537 3.32 3.427a3.444 3.444 0 0 1-1.587 2.912Zm1.522-.009c-.28.004-.563.007-.847.008.287-.253.539-.548.741-.88 0 .216.011.43.047.641.014.079.04.154.059.231Zm-6.087-5.54c.067-.018.125-.039.19-.058a3.86 3.86 0 0 0-.834 1.347 3.62 3.62 0 0 1-.118-.32c-.078-.245-.15-.492-.222-.739.287-.053.61-.126.984-.23Zm-1.1-.167c-.232-.803-.471-1.598-.838-2.341a6.41 6.41 0 0 1 .36-.762c.154-.27.346-.508.558-.725.484 1.66 2.404 2.4 3.216 2.643-.352.21-1.146.635-2.3.956-.386.107-.712.178-.996.23Zm11.452-2.139.03-.022.1-.017c.16-.02.32-.04.48-.07.434-.08.764-.21 1.041-.41a1.69 1.69 0 0 0 .466-.514c.1-.03.187-.02.24.042.076.089.075.24-.003.385-.212.397-.94.734-2.354.606Zm-3.39-2.087c.183.166 1.579 1.425 2.514 2.004-.995.617-3.755 2.023-6.678.874-.08-1.698 1.612-3.292 2.077-3.696a7.271 7.271 0 0 1 2.087.818Zm-2.585-.916c-.654.611-1.934 2.007-1.982 3.586-.71-.206-2.735-.933-3.077-2.578 1.272-1.023 3.228-1.316 5.059-1.008ZM3.477 7.322l.409-.056-.2-.372c-.554-1.041-.613-2.012-.162-2.734.408-.653 1.203-1.03 2.02-.967.848.069 1.544.595 1.908 1.445l.149.345.284-.236c.789-.655 2.159-.53 2.995.276.468.45.75 1.136.733 1.79-.012.467-.175.861-.461 1.109L9.736 9.15l.12-.053a4.15 4.15 0 0 0-.728.939 6.475 6.475 0 0 0-.225.438 5.928 5.928 0 0 0-.259-.387c-1.368-1.83-4.478-2.863-6.657-1.88.373-.465.94-.812 1.49-.886ZM1.84 8.972c1.752-1.038 4.443-.503 5.874.902 1.185 1.164 1.633 2.874 2.062 4.446.134.488.327.946.565 1.378-.024.176-.04.353-.04.536 0 .038.005.075.006.113l-2.64-1.925L5.74 9.57l-.295.125 1.736 4.375-2.857-2.082-.755-2.302-.302.106.615 1.874-2.234-1.628-.183.268 5.94 4.33.002.004h.003l2.931 2.136c.01.079.024.157.04.235-.166-.045-.356-.047-.642 0-.878.145-1.692.42-2.599.424-2.066.013-3.954-.908-5.134-2.68-1.094-1.644-2.365-4.48-.167-5.781Zm.535 7.12c.445.453.904.825 1.335 1.068 1.44.811 3.11 1.002 4.718.748.754-.12 1.482-.412 2.205-.1.2.457.486.866.834 1.207-2.336-.137-4.421-.371-6.099-.662-2.386-.48-3.702-1.08-3.702-1.58 0-.216.247-.448.709-.682Zm13.657 12.797c-4.04 0-6.73-.97-6.836-1.38 0-.002.064-.138.53-.32 1.919.624 4.058.975 6.316.975 2.253 0 4.389-.35 6.305-.97.436.169.514.299.52.299-.107.427-2.797 1.396-6.835 1.396Zm.01-1.306c-7.255 0-13.271-3.687-14.251-8.463 1.525 1.165 5.125 1.373 7.26 1.495.22.012.42.024.594.036 2.364.153 4.802.276 7.266.276 2.847 0 5.73-.164 8.567-.632l-.05-.325c-5.263.868-10.686.682-15.763.352a57.358 57.358 0 0 0-.596-.035c-2.102-.12-6.192-.354-7.362-1.665a6.812 6.812 0 0 1-.057-.68c.717.33 1.763.619 3.016.863 2.88.66 7.137.999 11.366.999 4.174 0 8.377-.33 11.255-.973 1.313-.25 2.405-.547 3.148-.889-.152 5.334-6.55 9.641-14.392 9.641Z"/>
  </g>
  <defs>
    <clipPath id="a">
      <path fill="#fff" d="M0 0h31v32H0z"/>
    </clipPath>
  </defs>
</svg>
