<svg xmlns="http://www.w3.org/2000/svg" width="57" height="59" fill="none"  viewBox="0 0 57 59">
  <path fill="#C00418" stroke-width="0.5"  d="M28.5 11.127A18.373 18.373 0 1 0 46.873 29.5 18.395 18.395 0 0 0 28.5 11.127Zm0 34.124A15.749 15.749 0 1 1 44.249 29.5 15.77 15.77 0 0 1 28.5 45.252Zm7.166-22.127 1.915 1.915-10.435 10.438-5.022-5.018 1.915-1.915 3.107 3.104 8.52-8.524Zm18.176 7.882a2.77 2.77 0 0 1 0-3.107l1.887-2.749a5.452 5.452 0 0 0-2.673-8.225l-3.141-1.116a2.756 2.756 0 0 1-1.823-2.51L48 9.967a5.455 5.455 0 0 0-6.996-5.083l-3.196.942a2.752 2.752 0 0 1-2.952-.958l-2.03-2.644a5.674 5.674 0 0 0-8.651 0l-2.032 2.644a2.765 2.765 0 0 1-2.952.958l-3.195-.942A5.455 5.455 0 0 0 9 9.964l-.092 3.34a2.757 2.757 0 0 1-1.823 2.508l-3.142 1.116a5.451 5.451 0 0 0-2.673 8.225l1.888 2.749a2.771 2.771 0 0 1 0 3.104L1.27 33.757a5.449 5.449 0 0 0 2.673 8.22l3.142 1.119a2.721 2.721 0 0 1 1.823 2.51L9 48.938a5.451 5.451 0 0 0 6.995 5.083l3.196-.942a2.762 2.762 0 0 1 2.952.958l2.032 2.644a5.457 5.457 0 0 0 8.65 0l2.031-2.644a2.776 2.776 0 0 1 2.952-.958l3.196.942A5.454 5.454 0 0 0 48 48.941l.092-3.335a2.722 2.722 0 0 1 1.823-2.51l3.141-1.119a5.45 5.45 0 0 0 2.673-8.22l-1.887-2.751Zm0 6.678a2.761 2.761 0 0 1-1.69 1.74l-3.142 1.115a5.484 5.484 0 0 0-3.626 4.992l-.093 3.33a2.743 2.743 0 0 1-3.52 2.56l-3.196-.942a5.492 5.492 0 0 0-5.866 1.906l-2.032 2.64a2.858 2.858 0 0 1-4.355 0l-2.03-2.64a5.487 5.487 0 0 0-5.867-1.91l-3.196.949a2.744 2.744 0 0 1-3.52-2.562l-.093-3.331a5.484 5.484 0 0 0-3.629-4.992l-3.142-1.116a2.746 2.746 0 0 1-1.34-4.138l1.885-2.75a5.49 5.49 0 0 0 0-6.169l-1.888-2.749a2.746 2.746 0 0 1 1.346-4.138l3.142-1.116a5.484 5.484 0 0 0 3.626-4.991l.092-3.332a2.758 2.758 0 0 1 1.13-2.147 2.79 2.79 0 0 1 2.391-.412l3.196.943A5.473 5.473 0 0 0 24.29 6.52l2.031-2.644a2.857 2.857 0 0 1 4.355 0L32.71 6.52a5.484 5.484 0 0 0 5.866 1.904l3.196-.943a2.743 2.743 0 0 1 3.52 2.557l.093 3.331a5.484 5.484 0 0 0 3.629 4.994l3.141 1.116a2.747 2.747 0 0 1 1.341 4.138l-1.885 2.75a5.49 5.49 0 0 0 0 6.169l1.885 2.749a2.757 2.757 0 0 1 .347 2.4Z"/>
</svg>
